<svg xmlns="http://www.w3.org/2000/svg" width="36" height="27" viewBox="0 0 36 27">
  <defs>
    <style>
      .cls-1 {
        fill: #d43396;
        fill-rule: evenodd;
      }
    </style>
  </defs>
  <path id="icon" class="cls-1" d="M427,3183a6.006,6.006,0,0,1-6-6,5.93,5.93,0,0,1,.343-2,1.5,1.5,0,0,1,2.827,1,2.967,2.967,0,0,0-.17,1,3,3,0,1,0,3-3,1.5,1.5,0,0,1,0-3A6,6,0,0,1,427,3183Zm13.5-16.5h-5.338l-0.816-2.45A2.991,2.991,0,0,0,431.5,3162h-9a2.991,2.991,0,0,0-2.846,2.05l-0.816,2.45H413.5a4.505,4.505,0,0,0-4.5,4.5v13.5a4.505,4.505,0,0,0,4.5,4.5h27a4.506,4.506,0,0,0,4.5-4.5V3171A4.506,4.506,0,0,0,440.5,3166.5Z" transform="translate(-409 -3162)"/>
</svg>
