<svg xmlns="http://www.w3.org/2000/svg" width="35.938" height="40" viewBox="0 0 35.938 40">
  <defs>
    <style>
      .cls-1 {
        fill: #d43396;
        fill-rule: evenodd;
      }
    </style>
  </defs>
  <path id="icon" class="cls-1" d="M427,2888.61a6.615,6.615,0,1,1,6.569-6.61A6.59,6.59,0,0,1,427,2888.61Zm17.048-1.52-1.319-1.35a3.323,3.323,0,0,1-.983-2.57,15.1,15.1,0,0,0-.013-2.74,3.226,3.226,0,0,1,.949-2.52l1.33-1.37a3.329,3.329,0,0,0,.491-3.98l-0.807-1.4a3.264,3.264,0,0,0-3.63-1.54l-1.98.49a3.27,3.27,0,0,1-2.676-.51c-0.341-.24-0.7-0.46-1.065-0.67-0.349-.2-0.7-0.38-1.061-0.55a3.326,3.326,0,0,1-1.841-2.15l-0.486-1.79a3.3,3.3,0,0,0-3.23-2.44l-1.6.04a3.271,3.271,0,0,0-3.088,2.37l-0.6,2.05a3.208,3.208,0,0,1-1.686,2.01,15.341,15.341,0,0,0-2.31,1.38,3.188,3.188,0,0,1-2.643.51l-1.9-.46a3.291,3.291,0,0,0-3.627,1.59l-0.826,1.47a3.328,3.328,0,0,0,.517,3.95l1.319,1.35a3.31,3.31,0,0,1,.983,2.57,15.107,15.107,0,0,0,.013,2.74,3.227,3.227,0,0,1-.95,2.52l-1.329,1.37a3.316,3.316,0,0,0-.491,3.97l0.807,1.4a3.283,3.283,0,0,0,3.629,1.55l1.981-.5a3.274,3.274,0,0,1,2.676.52c0.341,0.23.7,0.46,1.064,0.67q0.525,0.3,1.062.54a3.349,3.349,0,0,1,1.841,2.15l0.485,1.79a3.28,3.28,0,0,0,3.231,2.44l1.6-.03a3.3,3.3,0,0,0,3.088-2.37l0.6-2.05a3.256,3.256,0,0,1,1.687-2.02,14.552,14.552,0,0,0,2.31-1.38,3.224,3.224,0,0,1,2.643-.51l1.9,0.46a3.272,3.272,0,0,0,3.627-1.58l0.825-1.47A3.326,3.326,0,0,0,444.048,2887.09Z" transform="translate(-409.031 -2862)"/>
</svg>
