<svg xmlns="http://www.w3.org/2000/svg" width="36.031" height="37" viewBox="0 0 36.031 37">
  <defs>
    <style>
      .cls-1 {
        fill: #d43396;
        fill-rule: evenodd;
      }
    </style>
  </defs>
  <path id="icon" class="cls-1" d="M444.976,2988.65a17.758,17.758,0,0,0-4.553-8.19,1.541,1.541,0,0,0-2.2,2.16,14.642,14.642,0,0,1,3.761,6.76A1.539,1.539,0,0,0,444.976,2988.65Zm-29.2-7.98a1.542,1.542,0,0,0-2.177.03,17.668,17.668,0,0,0-4.553,8.18,1.547,1.547,0,0,0,1.131,1.87,1.555,1.555,0,0,0,1.86-1.14,14.633,14.633,0,0,1,3.761-6.76A1.542,1.542,0,0,0,415.773,2980.67Zm14.545,31.7h-5.324a1.541,1.541,0,0,0-1.381,2.24,4.615,4.615,0,0,0,8.086,0A1.54,1.54,0,0,0,430.318,3012.37Zm11.991-5.37a3.076,3.076,0,0,1-2.987,3.83H415.559a3.076,3.076,0,0,1-2.987-3.83l1.015-4.07v-9.06a13.863,13.863,0,0,1,14.773-13.84,14.118,14.118,0,0,1,12.934,14.27v8.63Z" transform="translate(-409 -2980)"/>
</svg>
