<svg xmlns="http://www.w3.org/2000/svg" width="36" height="37.03" viewBox="0 0 36 37.03">
  <defs>
    <style>
      .cls-1 {
        fill: #d43396;
        fill-rule: evenodd;
      }
    </style>
  </defs>
  <path id="icon" class="cls-1" d="M443.519,3264.78l-6.941,6.95a4.943,4.943,0,0,1-3.938,1.44l-10.592-.93h0l-2.3,2.3a4.952,4.952,0,0,1-7.012,0l-2.337-2.34a4.967,4.967,0,0,1,0-7.02l2.3-2.31h0l-0.959-10.56a4.962,4.962,0,0,1,1.432-3.96l7.918-7.93a4.923,4.923,0,0,1,5.075-1.2l8.58,2.86a1.656,1.656,0,0,1,.646,2.74l-5.122,5.13a1.669,1.669,0,0,0,0,2.35l2.338,2.34a1.662,1.662,0,0,0,2.337,0l4.9-4.92a1.658,1.658,0,0,1,2.779.8l2.218,9.63A4.976,4.976,0,0,1,443.519,3264.78Z" transform="translate(-408.969 -3238.97)"/>
</svg>
