<svg xmlns="http://www.w3.org/2000/svg" width="36" height="32" viewBox="0 0 36 32">
  <defs>
    <style>
      .cls-1 {
        fill: #d43396;
        fill-rule: evenodd;
      }
    </style>
  </defs>
  <path id="icon" class="cls-1" d="M434.5,3336.51H418a1.525,1.525,0,0,1,0-3.05h16.5A1.525,1.525,0,0,1,434.5,3336.51Zm-6,6.1H418a1.525,1.525,0,0,1,0-3.05h10.5A1.525,1.525,0,0,1,428.5,3342.61Zm12-16.61h-27a4.532,4.532,0,0,0-4.5,4.57v16.76a4.532,4.532,0,0,0,4.5,4.57h0.386a0.757,0.757,0,0,1,.75.77v4.28a1.047,1.047,0,0,0,1.792.75l4.829-4.9a2.951,2.951,0,0,1,2.122-.9H440.5a4.532,4.532,0,0,0,4.5-4.57v-16.76A4.532,4.532,0,0,0,440.5,3326Z" transform="translate(-409 -3326)"/>
</svg>
